<?xml version="1.0" encoding="UTF-8"?>
<svg version="1.1" xmlns="http://www.w3.org/2000/svg" width="320" height="320">
<path d="M0 0 C0.83429031 -0.00807175 1.66858063 -0.01614349 2.52815247 -0.02445984 C4.29568439 -0.03825237 6.06324241 -0.04899599 7.83081055 -0.05688477 C9.60009836 -0.06829123 11.36935497 -0.08855809 13.13842773 -0.1184082 C29.53566078 -0.39423799 44.98885841 1.7821734 60.45703125 7.42578125 C61.27703613 7.72057373 62.09704102 8.01536621 62.94189453 8.3190918 C82.34729436 15.5469761 98.52169876 26.95688921 113.33203125 41.23828125 C114.110625 41.95371094 114.88921875 42.66914062 115.69140625 43.40625 C137.50700977 64.02276893 154.59326541 98.02415077 155.5090332 128.28979492 C155.53575648 129.82851681 155.55581997 131.36736432 155.5703125 132.90625 C155.57838425 133.74054031 155.58645599 134.57483063 155.59477234 135.43440247 C155.60856487 137.20193439 155.61930849 138.96949241 155.62719727 140.73706055 C155.63860373 142.50634836 155.65887059 144.27560497 155.6887207 146.04467773 C156.33443373 184.43033315 140.79522925 218.86773132 114.47607422 246.42871094 C88.56299655 272.93543625 53.60952467 288.16460085 16.61523438 288.828125 C-24.54250692 289.24767384 -59.55597308 276.70163303 -89.66796875 248.23828125 C-90.47878906 247.49191406 -91.28960937 246.74554688 -92.125 245.9765625 C-114.27763893 224.87050494 -131.90708104 191.1835279 -132.8449707 160.18676758 C-132.87169398 158.64804569 -132.89175747 157.10919818 -132.90625 155.5703125 C-132.91835762 154.31887703 -132.91835762 154.31887703 -132.93070984 153.04216003 C-132.94450237 151.27462811 -132.95524599 149.50707009 -132.96313477 147.73950195 C-132.97454123 145.97021414 -132.99480809 144.20095753 -133.0246582 142.43188477 C-133.30048799 126.03465172 -131.1240766 110.58145409 -125.48046875 95.11328125 C-125.18567627 94.29327637 -124.89088379 93.47327148 -124.5871582 92.62841797 C-117.3592739 73.22301814 -105.94936079 57.04861374 -91.66796875 42.23828125 C-90.95253906 41.4596875 -90.23710938 40.68109375 -89.5 39.87890625 C-67.42722817 16.5223522 -32.17389711 0.30299928 0 0 Z " fill="#040001" transform="translate(148.66796875,15.76171875)"/>
<path d="M0 0 C0.7377739 23.72226851 -1.06902791 46.05627383 -17.40625 64.75390625 C-24.71705062 72.4743638 -34.60930258 81.04707419 -45.6484375 82.30078125 C-54.89663878 82.34052997 -60.34162023 79.95059151 -67.203125 73.81640625 C-70.52340467 70.46003659 -71.96801039 68.99167783 -72.125 64.125 C-70.52408456 53.57983963 -63.77653131 43.91128066 -57 36 C-56.5771875 35.43410156 -56.154375 34.86820313 -55.71875 34.28515625 C-45.37023767 20.8762607 -17.52046066 0 0 0 Z " fill="#FBFBFB" transform="translate(256,139)"/>
<path d="M0 0 C19.30879813 6.09176617 36.46695604 15.8345233 51 30 C52.36125 31.299375 52.36125 31.299375 53.75 32.625 C54.4925 33.40875 55.235 34.1925 56 35 C56.45632812 35.47308594 56.91265625 35.94617188 57.3828125 36.43359375 C64.65052276 44.3671937 70.91309173 54.62678076 72.31640625 65.4375 C71.65362685 70.8051949 66.79699362 74.47081941 63 78 C58.01213033 81.84359369 53.08691566 82.64575641 46.86328125 82.37890625 C37.67035877 81.16238036 30.77775219 77.1398461 24 71 C23.07832031 70.17113281 22.15664062 69.34226562 21.20703125 68.48828125 C14.9491713 62.56822751 10.53417253 56.84861692 7 49 C6.43539062 47.80117187 6.43539062 47.80117187 5.859375 46.578125 C-0.78849292 31.39717288 -0.37331606 16.25360705 0 0 Z " fill="#FBFBFB" transform="translate(66,139)"/>
<path d="M0 0 C0.91072266 -0.00322266 1.82144531 -0.00644531 2.75976562 -0.00976562 C7.65106558 0.02930794 11.83151113 0.13091076 16.3125 2.3125 C17.91162109 5.24584961 17.91162109 5.24584961 19.0859375 8.96484375 C19.29940826 9.62078018 19.51287903 10.27671661 19.7328186 10.95252991 C20.40720651 13.04519137 21.04697502 15.14675852 21.6875 17.25 C22.13981053 18.66148729 22.59421568 20.07230519 23.05078125 21.48242188 C26.3125 31.70199321 26.3125 31.70199321 26.3125 35.3125 C24.29257005 35.7954607 22.27150646 36.27368112 20.25 36.75 C19.12464844 37.01683594 17.99929687 37.28367187 16.83984375 37.55859375 C1.41819872 40.85469285 -14.46326788 40.24133409 -29.6875 36.3125 C-29.02945317 29.27962455 -26.86686088 22.75572357 -24.6875 16.0625 C-24.33816406 14.87914062 -23.98882812 13.69578125 -23.62890625 12.4765625 C-20.91388987 4.22817364 -20.91388987 4.22817364 -17.74291992 1.8605957 C-12.11679971 -0.25037005 -5.9374758 -0.10640638 0 0 Z " fill="#F01524" transform="translate(162.6875,243.6875)"/>
<path d="M0 0 C14.85 0 29.7 0 45 0 C43.87454505 12.38000441 43.87454505 12.38000441 42.66015625 18.13671875 C42.40169922 19.37357422 42.14324219 20.61042969 41.87695312 21.88476562 C41.47379883 23.76711914 41.47379883 23.76711914 41.0625 25.6875 C40.79759766 26.95400391 40.53269531 28.22050781 40.25976562 29.52539062 C39.52340366 33.02082596 38.76356027 36.51042833 38 40 C37.82452637 40.87092285 37.64905273 41.7418457 37.46826172 42.63916016 C36.99609375 44.83203125 36.99609375 44.83203125 36 48 C31.69937981 49.43354006 27.5669459 49.18431214 23.0625 49.1875 C22.15564453 49.19974609 21.24878906 49.21199219 20.31445312 49.22460938 C19.43853516 49.22654297 18.56261719 49.22847656 17.66015625 49.23046875 C16.46338257 49.23663208 16.46338257 49.23663208 15.24243164 49.24291992 C12.66387077 48.96358752 11.18668758 48.39215549 9 47 C8.17730713 45.19865417 8.17730713 45.19865417 7.71972656 42.99682617 C7.4498996 41.75995308 7.4498996 41.75995308 7.17462158 40.49809265 C6.99840271 39.60540176 6.82218384 38.71271088 6.640625 37.79296875 C6.44652039 36.87542313 6.25241577 35.9578775 6.0524292 35.01252747 C5.64466311 33.06982098 5.24507298 31.12538321 4.85302734 29.17944336 C4.25378803 26.20629445 3.63122836 23.23882146 3.00390625 20.27148438 C2.61060233 18.38309874 2.21863128 16.4944349 1.828125 14.60546875 C1.6438092 13.71885056 1.45949341 12.83223236 1.26959229 11.91874695 C1.10231628 11.0847084 0.93504028 10.25066986 0.76269531 9.39135742 C0.6148761 8.6623674 0.46705688 7.93337738 0.3147583 7.18229675 C0 5 0 5 0 0 Z " fill="#F11524" transform="translate(138,73)"/>
<path d="M0 0 C-0.60171362 6.32749371 -1.62151909 12.37595652 -3.0625 18.5625 C-3.24876953 19.38041016 -3.43503906 20.19832031 -3.62695312 21.04101562 C-4.08020687 23.02835896 -4.53946212 25.01433201 -5 27 C-14.16284554 27.86850679 -23.23876187 28.15802252 -32.43286133 28.13037109 C-34.59137742 28.12492717 -36.74969262 28.13039808 -38.90820312 28.13671875 C-40.29427129 28.13605921 -41.68033933 28.13478062 -43.06640625 28.1328125 C-44.30334229 28.13168457 -45.54027832 28.13055664 -46.81469727 28.12939453 C-49.4196977 28.02357325 -51.53016175 27.77516818 -54 27 C-54.83988453 23.08470852 -55.67076813 19.16756028 -56.5 15.25 C-56.73847656 14.13882813 -56.97695312 13.02765625 -57.22265625 11.8828125 C-57.44824219 10.81289063 -57.67382812 9.74296875 -57.90625 8.640625 C-58.11572266 7.65610352 -58.32519531 6.67158203 -58.54101562 5.65722656 C-59 3 -59 3 -59 -1 C-38.79646069 -5.50158435 -20.07638169 -4.87755911 0 0 Z " fill="#EF1524" transform="translate(190,41)"/>
<path d="M0 0 C3.54145297 1.2968701 6.40737497 2.85577998 9.5 5 C18.13588132 10.63416809 27.652662 14.6979596 37 19 C35.63977201 22.71410064 33.9487249 25.83631133 31.76953125 29.1328125 C31.13080078 30.10476562 30.49207031 31.07671875 29.83398438 32.078125 C29.16689453 33.08359375 28.49980469 34.0890625 27.8125 35.125 C26.50589228 37.10636334 25.19990069 39.08813313 23.89453125 41.0703125 C23.25338379 42.04258789 22.61223633 43.01486328 21.95166016 44.01660156 C18.92163232 48.64844296 15.95643335 53.32094307 13 58 C7.64210958 57.50301652 3.87195698 56.18557777 -0.8125 53.5625 C-1.93269531 52.94503906 -3.05289063 52.32757813 -4.20703125 51.69140625 C-7 50 -7 50 -9 48 C-8.72460938 45.42236328 -8.72460938 45.42236328 -8 42 C-7.74936972 40.63205384 -7.50289996 39.2633413 -7.25976562 37.89404297 C-6.97585122 36.3433162 -6.6913157 34.79270305 -6.40625 33.2421875 C-6.25466431 32.41671417 -6.10307861 31.59124084 -5.94689941 30.74075317 C-5.62779859 29.00436417 -5.30841692 27.26802675 -4.98876953 25.53173828 C-4.50034253 22.87686186 -4.01381773 20.22164114 -3.52734375 17.56640625 C-3.21626277 15.87497849 -2.90506874 14.18357152 -2.59375 12.4921875 C-2.44893188 11.70045135 -2.30411377 10.90871521 -2.15490723 10.09298706 C-1.52833375 6.69953926 -0.8616019 3.34122818 0 0 Z " fill="#F01524" transform="translate(186,75)"/>
<path d="M0 0 C1.28950747 6.0123667 2.57101108 12.02636353 3.84521484 18.04199219 C4.27955552 20.08705335 4.71605741 22.13165676 5.15478516 24.17578125 C5.78600386 27.11860585 6.40936295 30.06300365 7.03125 33.0078125 C7.22811401 33.9174173 7.42497803 34.82702209 7.62780762 35.76419067 C9.49890996 44.69919589 9.49890996 44.69919589 9 49 C6.86865955 50.78638361 5.1532699 51.96345295 2.75 53.25 C2.16347656 53.58773437 1.57695312 53.92546875 0.97265625 54.2734375 C-0.66909752 55.21052841 -2.3340367 56.10665736 -4 57 C-4.71671875 57.42796875 -5.4334375 57.8559375 -6.171875 58.296875 C-8.5673699 59.21821919 -9.60959699 58.87913102 -12 58 C-13.39215088 56.53323364 -13.39215088 56.53323364 -14.65722656 54.62939453 C-15.13742249 53.91840607 -15.61761841 53.2074176 -16.11236572 52.47488403 C-16.61669128 51.70200043 -17.12101685 50.92911682 -17.640625 50.1328125 C-18.43119293 48.94702103 -18.43119293 48.94702103 -19.23773193 47.73727417 C-20.34922802 46.06466906 -21.45507208 44.38829629 -22.55566406 42.70849609 C-24.24451458 40.13336407 -25.95267388 37.57191282 -27.6640625 35.01171875 C-28.74075318 33.38619093 -29.81631291 31.75991331 -30.890625 30.1328125 C-31.40304749 29.36397736 -31.91546997 28.59514221 -32.44342041 27.80300903 C-32.91100769 27.08571625 -33.37859497 26.36842346 -33.86035156 25.62939453 C-34.27464417 24.99953644 -34.68893677 24.36967834 -35.11578369 23.72073364 C-36 22 -36 22 -36 19 C-35.00742188 18.59910156 -34.01484375 18.19820312 -32.9921875 17.78515625 C-22.45463599 13.41669136 -12.76155083 8.26934651 -3.734375 1.234375 C-2 0 -2 0 0 0 Z " fill="#F11524" transform="translate(135,74)"/>
<path d="M0 0 C6.45032335 0.56789969 12.39691611 5.68787006 17.22265625 9.82421875 C18.97265625 12.26171875 18.97265625 12.26171875 18.71118164 15.00830078 C17.95399425 18.34393025 17.00171573 21.51379634 15.90625 24.75390625 C15.30200195 26.55214844 15.30200195 26.55214844 14.68554688 28.38671875 C14.26466797 29.62421875 13.84378906 30.86171875 13.41015625 32.13671875 C12.98070211 33.41001545 12.55166165 34.68345176 12.12304688 35.95703125 C11.0769737 39.05998988 10.02671673 42.16146615 8.97265625 45.26171875 C2.81893619 44.84006011 -2.41883619 43.74202696 -8.08984375 41.32421875 C-8.80648193 41.02281982 -9.52312012 40.7214209 -10.26147461 40.41088867 C-15.76259384 38.00501297 -20.96186977 35.19265166 -26.08984375 32.07421875 C-27.13507202 31.45075562 -27.13507202 31.45075562 -28.20141602 30.81469727 C-30.125 29.59375 -30.125 29.59375 -33.02734375 27.26171875 C-33.02734375 23.26171875 -33.02734375 23.26171875 -30.5703125 20.59765625 C-29.46207364 19.59918068 -28.34281648 18.61284597 -27.21484375 17.63671875 C-26.01928112 16.57580264 -24.82397291 15.51459976 -23.62890625 14.453125 C-23.0246582 13.92219238 -22.42041016 13.39125977 -21.79785156 12.84423828 C-20.13694293 11.35968095 -18.52532106 9.83923379 -16.92578125 8.2890625 C-15.98992187 7.39316406 -15.0540625 6.49726563 -14.08984375 5.57421875 C-13.25582031 4.76597656 -12.42179687 3.95773438 -11.5625 3.125 C-7.81118943 0.36787343 -4.52054874 0.39080873 0 0 Z " fill="#F11524" transform="translate(121.02734375,232.73828125)"/>
<path d="M0 0 C5.29708487 0.60251202 9.63012892 2.33014606 14.4375 4.5 C15.22374756 4.85312256 16.00999512 5.20624512 16.82006836 5.57006836 C28.04731156 10.73159 38.53123402 17.01954954 48 25 C46.39300169 29.72968822 43.79450896 33.53703261 41 37.625 C40.54882812 38.29273438 40.09765625 38.96046875 39.6328125 39.6484375 C38.79509226 40.88766862 37.95547254 42.1256195 37.11328125 43.36181641 C36.06666809 44.90189849 35.03288273 46.4506759 34 48 C21.6476738 46.10328964 2.65564667 37.20119668 -5 27 C-5.05859375 24.2578125 -5.05859375 24.2578125 -4.4375 21.125 C-4.22222656 19.98933594 -4.00695312 18.85367188 -3.78515625 17.68359375 C-3.39650391 15.86021484 -3.39650391 15.86021484 -3 14 C-2.72744897 12.67847106 -2.45531775 11.35685548 -2.18359375 10.03515625 C-1.47940453 6.68430415 -0.75125195 3.34056702 0 0 Z " fill="#F11524" transform="translate(193,42)"/>
<path d="M0 0 C0.19335938 0.9178125 0.38671875 1.835625 0.5859375 2.78125 C2.24846435 10.70440388 2.24846435 10.70440388 4.1875 18.5625 C5.4878548 24.06400109 5.4878548 24.06400109 5 27 C2.99203334 28.89658484 1.21270642 30.30562324 -1.0625 31.8125 C-1.68793701 32.24119385 -2.31337402 32.6698877 -2.95776367 33.11157227 C-12.40441452 39.45122024 -22.11731182 44.63254421 -33 48 C-35.37473476 44.59720874 -37.72104293 41.17575599 -40.0625 37.75 C-40.73861328 36.78191406 -41.41472656 35.81382813 -42.11132812 34.81640625 C-42.74619141 33.88183594 -43.38105469 32.94726562 -44.03515625 31.984375 C-44.6269165 31.12553711 -45.21867676 30.26669922 -45.82836914 29.38183594 C-47 27 -47 27 -46.82910156 24.82055664 C-42.06940142 14.36911848 -22.37179437 6.95234653 -12.5 3.0625 C-11.72188965 2.75554199 -10.9437793 2.44858398 -10.14208984 2.13232422 C-6.41063213 0.71846112 -4.09094045 0 0 0 Z " fill="#F11524" transform="translate(128,42)"/>
<path d="M0 0 C3.0389413 2.20595326 5.60154877 4.60160545 8.25390625 7.2578125 C11.83772131 10.83652967 15.73865689 13.9273255 19.6875 17.08984375 C21.57675756 18.65039602 23.31187111 20.22857528 25 22 C23.51084719 26.39796464 20.1923674 28.10303058 16.375 30.3125 C15.71709473 30.70058838 15.05918945 31.08867676 14.38134766 31.48852539 C7.19682147 35.62509646 -0.33267984 38.87595646 -8 42 C-8.89460938 42.39316406 -9.78921875 42.78632813 -10.7109375 43.19140625 C-13 44 -13 44 -17 44 C-18.45596393 39.80530131 -19.89800202 35.60615004 -21.32739258 31.40234375 C-21.81546254 29.97330863 -22.30729682 28.54555337 -22.80297852 27.11914062 C-23.51534629 25.06706415 -24.21399293 23.01074655 -24.91015625 20.953125 C-25.33433838 19.71723633 -25.75852051 18.48134766 -26.19555664 17.20800781 C-26.96015268 14.15890556 -27.22709664 12.83025222 -26 10 C-23.59385617 7.0597956 -20.80321688 4.55787015 -18 2 C-16.63875 0.700625 -16.63875 0.700625 -15.25 -0.625 C-9.87542193 -2.89885995 -5.37107486 -2.07246189 0 0 Z " fill="#F11524" transform="translate(209,234)"/>
<path d="M0 0 C0.66 0 1.32 0 2 0 C2.25652344 0.49886719 2.51304688 0.99773437 2.77734375 1.51171875 C4.78684869 5.28038626 6.8646472 8.88108565 9.40625 12.31640625 C9.82269775 12.88464111 10.23914551 13.45287598 10.66821289 14.03833008 C11.50612201 15.16827446 12.35933544 16.2870483 13.22827148 17.39331055 C14.40234375 18.984375 14.40234375 18.984375 16 22 C15.44921875 24.50390625 15.44921875 24.50390625 14 27 C13.28457031 28.47533203 13.28457031 28.47533203 12.5546875 29.98046875 C8.70567015 37.32940652 4.44231492 43.73780387 -1 50 C-7.84726521 49.16235447 -12.14157295 46.31990804 -16.62109375 41.1171875 C-20 36.5417847 -20 36.5417847 -20 34 C-20.66 34 -21.32 34 -22 34 C-22.07347656 34.8353125 -22.07347656 34.8353125 -22.1484375 35.6875 C-22.66555577 40.96567265 -23.60462463 45.88362365 -25 51 C-26.98 49.68 -28.96 48.36 -31 47 C-28.266935 28.68846448 -12.55999822 12.55999822 0 0 Z " fill="#EF1523" transform="translate(77,69)"/>
<path d="M0 0 C14.2791451 6.48769853 24.1530347 26.54728726 30.625 40.25 C32 44 32 44 31 47 C28.4375 48.1875 28.4375 48.1875 26 49 C25.72285156 47.92878906 25.44570313 46.85757813 25.16015625 45.75390625 C24.79445076 44.35672373 24.42855554 42.95959085 24.0625 41.5625 C23.78889648 40.50192383 23.78889648 40.50192383 23.50976562 39.41992188 C22.81850626 35.92425139 22.81850626 35.92425139 21 33 C20.67128906 33.58007812 20.34257812 34.16015625 20.00390625 34.7578125 C16.25057452 40.9218207 12.25726322 44.45421751 6 48 C-2.53411912 44.26283673 -7.46652181 34.70332441 -12 27 C-12.41636719 26.31421875 -12.83273438 25.6284375 -13.26171875 24.921875 C-14.21020217 22.45280706 -13.82860106 21.49260196 -13 19 C-11.80078125 16.90942383 -11.80078125 16.90942383 -10.3125 14.70703125 C-9.77882812 13.91232422 -9.24515625 13.11761719 -8.6953125 12.29882812 C-8.13585937 11.47833984 -7.57640625 10.65785156 -7 9.8125 C-6.16082031 8.56436523 -6.16082031 8.56436523 -5.3046875 7.29101562 C-1.18268327 1.18268327 -1.18268327 1.18268327 0 0 Z " fill="#F01524" transform="translate(243,71)"/>
<path d="M0 0 C3.04646779 1.36289349 5.11754013 2.93023645 7.5 5.25 C15.08585152 12.00394587 23.98084674 15.71435644 34 17 C34 19 34 19 32.671875 20.33984375 C32.03765625 20.86707031 31.4034375 21.39429688 30.75 21.9375 C28.09357576 24.18597338 25.48128631 26.46142056 22.9375 28.8359375 C22.4105957 29.32715088 21.88369141 29.81836426 21.34082031 30.32446289 C20.29551256 31.30223311 19.25309626 32.28310543 18.21386719 33.26733398 C15.63175877 35.67091048 13.27875922 37.64946346 10 39 C0.1045667 30.47308407 -10.91342813 20.77762644 -17 9 C-16.67 8.01 -16.34 7.02 -16 6 C-13.48741496 4.98439904 -11.08646581 4.14382103 -8.5 3.375 C-3.89246743 2.29627722 -3.89246743 2.29627722 0 0 Z " fill="#EF1524" transform="translate(73,217)"/>
<path d="M0 0 C0.66 0 1.32 0 2 0 C3.56884766 2.10449219 3.56884766 2.10449219 5.4140625 5.046875 C6.09339844 6.12066406 6.77273437 7.19445312 7.47265625 8.30078125 C8.19042524 9.45032042 8.90787206 10.60006081 9.625 11.75 C11.01184713 13.95386402 12.39986638 16.1569909 13.7890625 18.359375 C14.47516602 19.45572266 15.16126953 20.55207031 15.86816406 21.68164062 C17.32484084 23.94906512 18.79481273 26.16348357 20.34277344 28.36523438 C21.08301758 29.42548828 21.82326172 30.48574219 22.5859375 31.578125 C23.26446777 32.5259082 23.94299805 33.47369141 24.64208984 34.45019531 C26 37 26 37 25.81518555 39.19140625 C24.69019705 41.6873376 23.15683241 43.62427993 21.4375 45.75 C20.79683594 46.54921875 20.15617187 47.3484375 19.49609375 48.171875 C19.00238281 48.77515625 18.50867188 49.3784375 18 50 C13.06053315 46.81299706 8.4474312 43.29904673 3.8125 39.6875 C-2.58907184 34.73795985 -9.03603341 30.13626525 -16 26 C-15.43410156 25.154375 -14.86820312 24.30875 -14.28515625 23.4375 C-11.97747303 19.97445094 -9.69902054 16.49334371 -7.4375 13 C-7.05142578 12.40960938 -6.66535156 11.81921875 -6.26757812 11.2109375 C-3.91929981 7.57850699 -1.86638358 3.91165376 0 0 Z " fill="#EE1523" transform="translate(95,97)"/>
<path d="M0 0 C2.63777305 0.78007313 5.01233385 1.77511435 7.5 2.9453125 C9.03771444 3.51852858 10.57909521 4.08206688 12.125 4.6328125 C13.23875 5.0659375 14.3525 5.4990625 15.5 5.9453125 C13.59473195 17.3239967 -0.45528585 30.38346106 -9.5 36.9453125 C-18.1571263 36.45936154 -28.56069709 23.71712964 -34.5 17.9453125 C-34.5 17.6153125 -34.5 17.2853125 -34.5 16.9453125 C-33.39205078 16.72488281 -33.39205078 16.72488281 -32.26171875 16.5 C-22.179806 14.27096211 -14.19400578 10.84300967 -6.9375 3.3828125 C-3.26010218 -0.07131474 -3.26010218 -0.07131474 0 0 Z " fill="#EF1523" transform="translate(248.5,217.0546875)"/>
<path d="M0 0 C2.88628267 2.78046771 5.07862487 5.8767825 7.3125 9.1875 C10.74237715 14.23354963 14.30865026 19.14180369 18 24 C17.24662354 24.50430542 17.24662354 24.50430542 16.47802734 25.01879883 C5.64773016 32.29042873 -4.88155555 39.7632891 -15 48 C-16.12894876 47.06725891 -17.25300876 46.12859878 -18.375 45.1875 C-19.00148437 44.66542969 -19.62796875 44.14335937 -20.2734375 43.60546875 C-22 42 -22 42 -24 39 C-23.70372395 34.79226826 -21.98188601 32.0564963 -19.6484375 28.61328125 C-18.96136719 27.59169922 -18.27429688 26.57011719 -17.56640625 25.51757812 C-16.84324219 24.45990234 -16.12007812 23.40222656 -15.375 22.3125 C-14.67503906 21.27416016 -13.97507813 20.23582031 -13.25390625 19.16601562 C-8.90382672 12.72967347 -4.47567744 6.34952502 0 0 Z " fill="#EF1523" transform="translate(225,98)"/>
<path d="M0 0 C5.15077262 -0.09036443 9.89027647 0.21341226 15 1 C15.32871094 1.969375 15.65742187 2.93875 15.99609375 3.9375 C18.65614099 11.52522269 21.65994295 18.68155361 25.625 25.6875 C26.18272095 26.67459961 26.18272095 26.67459961 26.75170898 27.68164062 C28.44487906 30.59517102 30.15608261 33.1944328 32.2734375 35.83203125 C34 38 34 38 34 40 C31.39802798 41.00605593 28.79370638 42.00502525 26.1875 43 C25.44951172 43.28617188 24.71152344 43.57234375 23.95117188 43.8671875 C23.23896484 44.13789063 22.52675781 44.40859375 21.79296875 44.6875 C21.1383667 44.93886719 20.48376465 45.19023437 19.80932617 45.44921875 C18 46 18 46 15 46 C0 15.92555831 0 15.92555831 0 0 Z " fill="#ED1523" transform="translate(38,175)"/>
<path d="M0 0 C4.29 0 8.58 0 13 0 C12.38605735 16.37180401 6.62405334 29.77347863 -1 44 C-5.58788259 43.45586911 -9.62429608 42.58823237 -13.9375 40.9375 C-14.89527344 40.57527344 -15.85304687 40.21304688 -16.83984375 39.83984375 C-17.55269531 39.56269531 -18.26554688 39.28554687 -19 39 C-17.69712267 35.22093592 -15.83413628 32.10100483 -13.62255859 28.78320312 C-7.56873264 19.676516 -3.59801272 10.29365229 0 0 Z " fill="#EE1523" transform="translate(268,176)"/>
<path d="M0 0 C5.83992258 3.61963252 5.83992258 3.61963252 7.125 7.3359375 C7.2578125 9.828125 7.2578125 9.828125 5.1953125 13.015625 C2.5844028 15.86855723 0.04668195 16.94699257 -3.7421875 17.828125 C-3.4534375 18.45460937 -3.1646875 19.08109375 -2.8671875 19.7265625 C-2.4959375 20.54382813 -2.1246875 21.36109375 -1.7421875 22.203125 C-1.3709375 23.01523438 -0.9996875 23.82734375 -0.6171875 24.6640625 C0.2578125 26.828125 0.2578125 26.828125 0.2578125 28.828125 C-3.19302745 31.12868497 -4.61394478 31.09822756 -8.6796875 31.078125 C-9.71996094 31.08328125 -10.76023438 31.0884375 -11.83203125 31.09375 C-14.67317245 30.83442436 -16.32926384 30.29332202 -18.7421875 28.828125 C-18.07720367 24.43923175 -16.55461073 20.8469765 -14.7421875 16.828125 C-15.4434375 16.951875 -16.1446875 17.075625 -16.8671875 17.203125 C-20.6472056 16.71007916 -22.04445447 15.12443604 -24.703125 12.53125 C-25.7421875 10.828125 -25.7421875 10.828125 -25.51171875 8.78515625 C-23.98410098 4.90019938 -21.58755078 2.44101338 -18.2421875 0.015625 C-12.17335993 -2.0434415 -5.99450905 -2.561756 0 0 Z " fill="#B81218" transform="translate(169.7421875,176.171875)"/>
<path d="M0 0 C7.59 0 15.18 0 23 0 C21.87451555 11.25484454 21.87451555 11.25484454 20.87890625 16.34765625 C20.55889648 17.99797852 20.55889648 17.99797852 20.23242188 19.68164062 C20.01134766 20.79732422 19.79027344 21.91300781 19.5625 23.0625 C19.34529297 24.18205078 19.12808594 25.30160156 18.90429688 26.45507812 C17.69265347 32.65883789 16.40226176 38.83657042 15 45 C13.02 45 11.04 45 9 45 C7.87271125 40.03924001 6.75195044 35.07706473 5.63696289 30.11352539 C5.25752724 28.42856021 4.87637487 26.7439806 4.4934082 25.05981445 C3.94019458 22.62553025 3.39336758 20.18988188 2.84765625 17.75390625 C2.6778273 17.01290176 2.50799835 16.27189728 2.33302307 15.50843811 C1.17248429 10.28847756 0.59825109 5.38425979 0 0 Z " fill="#BC1319" transform="translate(149,126)"/>
<path d="M0 0 C3.96 0 7.92 0 12 0 C12.48210937 1.54171875 12.96421875 3.0834375 13.4609375 4.671875 C14.09878283 6.69797193 14.73681333 8.72401057 15.375 10.75 C15.69210938 11.76578125 16.00921875 12.7815625 16.3359375 13.828125 C16.6453125 14.8078125 16.9546875 15.7875 17.2734375 16.796875 C17.55622559 17.69760742 17.83901367 18.59833984 18.13037109 19.52636719 C18.9242192 21.98437227 18.9242192 21.98437227 20.10791016 24.07519531 C21 26 21 26 21 30 C20.33991943 29.99476318 19.67983887 29.98952637 18.99975586 29.98413086 C15.97901378 29.96321049 12.958287 29.9502922 9.9375 29.9375 C8.37999023 29.92493164 8.37999023 29.92493164 6.79101562 29.91210938 C1.41276931 29.89503558 -3.70333211 30.04584848 -9 31 C-8.38370741 24.18165184 -6.15310089 18.01031953 -3.9375 11.5625 C-3.56044922 10.44939453 -3.18339844 9.33628906 -2.79492188 8.18945312 C-1.86873262 5.45778103 -0.93510524 2.72863284 0 0 Z " fill="#BB1319" transform="translate(155,210)"/>
<path d="M0 0 C2.49361571 1.20381448 4.68143083 2.45428722 7 4 C7.25477241 7.01914882 7.32325613 9.83125001 7.2578125 12.84765625 C7.25119598 13.73351913 7.24457947 14.61938202 7.23776245 15.53208923 C7.21430461 18.37590781 7.17065815 21.21895833 7.125 24.0625 C7.08976626 26.88095824 7.05888965 29.69936343 7.03366089 32.51792908 C7.01689572 34.27220543 6.99393609 36.02643775 6.96365356 37.78053284 C6.89775732 43.27525299 7.29839443 48.54835362 8 54 C3.13969208 54.08379841 -1.19793311 53.83101637 -6 53 C-6.94391314 16.29630065 -6.94391314 16.29630065 0 0 Z " fill="#EA1423" transform="translate(44,119)"/>
<path d="M0 0 C3.8382853 1.46591339 7.46584392 3.19623869 11.125 5.0625 C14.08657781 6.57283083 16.84546442 7.94848814 20 9 C18.33408808 14.03763785 15.40269666 18.09632709 12.4375 22.4375 C11.35711408 24.03711323 10.27769864 25.63738233 9.19921875 27.23828125 C8.66216309 28.03443848 8.12510742 28.8305957 7.57177734 29.65087891 C5.25429641 33.11450138 2.99547649 36.61440154 0.75 40.125 C0.3677124 40.7223999 -0.0145752 41.3197998 -0.40844727 41.93530273 C-1.27361378 43.28936213 -2.13703577 44.64453599 -3 46 C-4.65 45.34 -6.3 44.68 -8 44 C-7.3411415 36.29959129 -5.74726831 28.95817139 -4 21.4375 C-1.53479837 10.79903833 -1.53479837 10.79903833 0 0 Z " fill="#BB1319" transform="translate(175,128)"/>
<path d="M0 0 C2.35515872 3.92155528 3.03647191 8.17593083 3.9453125 12.59765625 C4.12005096 13.42833115 4.29478943 14.25900604 4.474823 15.11485291 C4.84213638 16.86678897 5.20675276 18.61929238 5.56884766 20.37231445 C6.12398003 23.05756627 6.68825121 25.7407754 7.25390625 28.42382812 C7.60991587 30.12749123 7.96540253 31.83126372 8.3203125 33.53515625 C8.48902863 34.33832779 8.65774475 35.14149933 8.83157349 35.9690094 C9.46119111 39.03148058 10 41.86446262 10 45 C8.35 45.66 6.7 46.32 5 47 C4.41734375 46.05382812 3.8346875 45.10765625 3.234375 44.1328125 C2.40700377 42.79640804 1.57881021 41.46051251 0.75 40.125 C0.31123535 39.41770752 -0.1275293 38.71041504 -0.57958984 37.98168945 C-3.09782321 33.9517239 -5.6721393 29.97062855 -8.3359375 26.03515625 C-9.15723145 24.82158447 -9.15723145 24.82158447 -9.99511719 23.58349609 C-11.07037754 22.00281828 -12.1516443 20.42620747 -13.23925781 18.85400391 C-13.73006836 18.1326123 -14.22087891 17.4112207 -14.7265625 16.66796875 C-15.16564941 16.03141357 -15.60473633 15.3948584 -16.05712891 14.73901367 C-17 13 -17 13 -17 10 C-16.27554688 9.61328125 -15.55109375 9.2265625 -14.8046875 8.828125 C-9.70822457 6.0828303 -4.73786613 3.32931133 0 0 Z " fill="#BB1319" transform="translate(145,127)"/>
<path d="M0 0 C0.78125 1.8984375 0.78125 1.8984375 1.5 4.375 C1.7371875 5.16648437 1.974375 5.95796875 2.21875 6.7734375 C4.65913895 16.85224387 5.25651806 26.31866547 5.125 36.6875 C5.11494059 38.0826758 5.10582002 39.4778587 5.09765625 40.87304688 C5.07429406 44.2488837 5.04153668 47.62434618 5 51 C1.04 51 -2.92 51 -7 51 C-7.12343465 44.07664532 -7.21426297 37.15392846 -7.2746582 30.22973633 C-7.2998299 27.87350308 -7.33396993 25.51734812 -7.37719727 23.16137695 C-7.43772985 19.77796134 -7.46618345 16.39557628 -7.48828125 13.01171875 C-7.51408768 11.95538742 -7.5398941 10.89905609 -7.56648254 9.81071472 C-7.56752105 7.11366075 -7.53392122 4.64355752 -7 2 C-3.16899367 -1.58449684 -3.16899367 -1.58449684 0 0 Z " fill="#ED1523" transform="translate(277,121)"/>
<path d="M0 0 C0.495 0.99 0.495 0.99 1 2 C-0.16328617 4.39392048 -1.37433674 6.60561875 -2.75 8.875 C-3.15323486 9.54249268 -3.55646973 10.20998535 -3.97192383 10.89770508 C-9.91480583 20.40790074 -17.32857513 29.34694054 -27.625 34.25 C-35.30238821 35.95608627 -41.81428285 36.16426709 -48.75 32.125 C-51.234375 30.5078125 -51.234375 30.5078125 -53 29 C-53 28.34 -53 27.68 -53 27 C-52.16597656 26.89042969 -51.33195313 26.78085938 -50.47265625 26.66796875 C-43.66350493 25.70860379 -37.40220598 24.50001252 -31 22 C-29.59814453 21.49339844 -29.59814453 21.49339844 -28.16796875 20.9765625 C-16.47097349 16.50197381 -7.8392713 9.70362522 0 0 Z " fill="#D5D9DE" transform="translate(244,180)"/>
<path d="M0 0 C0.61875 0.639375 1.2375 1.27875 1.875 1.9375 C2.9149323 2.96010009 3.95691224 3.98061878 5 5 C5.6703125 5.67804688 6.340625 6.35609375 7.03125 7.0546875 C20.34935389 19.88446092 35.891529 24.93447119 54 27 C54 27.66 54 28.32 54 29 C52.35546875 30.25390625 52.35546875 30.25390625 50.1875 31.5625 C49.12595703 32.21412109 49.12595703 32.21412109 48.04296875 32.87890625 C42.1669696 36.10340292 34.44505835 35.99767937 28.0625 34.1875 C16.3199903 28.97661124 8.08308718 16.79687386 2 6 C1.26983997 4.02229659 0.57752244 2.02753848 0 0 Z " fill="#D5D9DE" transform="translate(77,180)"/>
<path d="M0 0 C4.241108 3.70592056 6.84289781 8.31050603 9.75 13.0625 C14.22622434 20.27625565 18.84252103 27.24977017 24 34 C22.60667426 37.36720387 21.0210714 38.9859524 18 41 C17.52691406 40.33355469 17.05382812 39.66710937 16.56640625 38.98046875 C9.39101257 28.97967639 1.933285 19.49514024 -7 11 C-5.32603695 6.408335 -3.20616974 3.62803418 0 0 Z " fill="#B81218" transform="translate(124,140)"/>
<path d="M0 0 C2.66666667 2.66666667 5.33333333 5.33333333 8 8 C6.48568834 11.62941 4.35056071 13.76284414 1.5 16.4375 C-2.49468605 20.34521901 -6.04546719 24.37311377 -9.4375 28.8125 C-9.85 29.35124756 -10.2625 29.88999512 -10.6875 30.44506836 C-13.00060744 33.52205472 -15.08188614 36.66334534 -17 40 C-20.16115776 38.63016497 -20.9927092 38.0109362 -23 35 C-20.04603853 30.49754804 -17.09193342 25.99519037 -14.13769531 21.49291992 C-13.132773 19.96137032 -12.12788991 18.42979498 -11.12304688 16.89819336 C-9.67848868 14.69638405 -8.23378935 12.4946674 -6.7890625 10.29296875 C-6.34003571 9.60849167 -5.89100891 8.92401459 -5.42837524 8.21879578 C-3.62692963 5.47372037 -1.82130536 2.73195804 0 0 Z " fill="#B81218" transform="translate(197,140)"/>
<path d="M0 0 C0.99 0.33 1.98 0.66 3 1 C1.897038 7.94217258 0.36380669 14.38989804 -2 21 C-2.73313551 23.18617305 -3.46217892 25.37372189 -4.1875 27.5625 C-4.79166667 29.375 -5.39583333 31.1875 -6 33 C-9.58513106 31.37815499 -12.58992323 29.20743761 -15.75 26.875 C-16.73484375 26.15054688 -17.7196875 25.42609375 -18.734375 24.6796875 C-19.48203125 24.12539062 -20.2296875 23.57109375 -21 23 C-18.54679267 20.48722251 -16.04552346 18.20016983 -13.3125 16 C-7.95405318 11.38830471 -4.07076068 5.7386418 0 0 Z " fill="#B41218" transform="translate(149,207)"/>
<path d="M0 0 C0.99 0 1.98 0 3 0 C4.796875 2.16015625 4.796875 2.16015625 6.75 5.0625 C10.13629198 9.90539551 13.69974489 13.97618986 18 18 C19.32 19.32 20.64 20.64 22 22 C18.37 25.3 14.74 28.6 11 32 C8.58220426 29.58220426 8.13957116 27.75333563 7.125 24.5 C5.84540694 20.4934839 4.46395501 16.61740737 2.8125 12.75 C1.03871938 8.45119049 0.34288487 4.62894568 0 0 Z " fill="#B51218" transform="translate(170,208)"/>
<path d="M0 0 C0.91523438 -0.00773438 1.83046875 -0.01546875 2.7734375 -0.0234375 C7.5975406 -0.00949501 11.98670046 0.00614457 16.375 2.25 C17.02587891 4.32714844 17.02587891 4.32714844 17.375 6.25 C16.33045654 6.2092334 15.28591309 6.1684668 14.2097168 6.12646484 C10.33554505 5.97803261 6.46099588 5.84337874 2.58618164 5.71289062 C0.90896303 5.65447922 -0.76812968 5.59232797 -2.44506836 5.52636719 C-4.85507279 5.43222082 -7.26520949 5.35151868 -9.67578125 5.2734375 C-10.80092888 5.22514297 -10.80092888 5.22514297 -11.94880676 5.1758728 C-15.76679931 5.06592867 -17.35875485 5.07250324 -20.625 7.25 C-20.125 4.875 -20.125 4.875 -18.625 2.25 C-12.39284241 0.16314996 -6.53066241 -0.05565905 0 0 Z " fill="#B61118" transform="translate(162.625,243.75)"/>
<path d="M0 0 C7.59 0 15.18 0 23 0 C23 1.98 23 3.96 23 6 C22 7 22 7 19.95874023 7.11352539 C19.08419189 7.10828857 18.20964355 7.10305176 17.30859375 7.09765625 C16.36435547 7.09443359 15.42011719 7.09121094 14.44726562 7.08789062 C13.45404297 7.07951172 12.46082031 7.07113281 11.4375 7.0625 C10.44041016 7.05798828 9.44332031 7.05347656 8.41601562 7.04882812 C5.94395151 7.03700007 3.47200482 7.02051849 1 7 C0.67 4.69 0.34 2.38 0 0 Z " fill="#E11321" transform="translate(149,126)"/>
<path d="M0 0 C0.99 0.33 1.98 0.66 3 1 C2.34 1 1.68 1 1 1 C1.23710693 2.10923828 1.47421387 3.21847656 1.71850586 4.36132812 C2.60340842 8.50546704 3.48386746 12.65053986 4.36303711 16.79589844 C4.74302376 18.58456487 5.12418983 20.3729812 5.5065918 22.16113281 C6.05833688 24.74217762 6.60573201 27.32411381 7.15234375 29.90625 C7.3221727 30.69616333 7.49200165 31.48607666 7.66697693 32.29992676 C8.69639466 37.18808252 9.44367427 42.03510191 10 47 C9.34 47 8.68 47 8 47 C7.67 48.32 7.34 49.64 7 51 C5.71551858 44.77090756 4.43408068 38.5411947 3.15478516 32.31103516 C2.71896777 30.19044722 2.28244658 28.0700038 1.84521484 25.94970703 C1.21788636 22.90695052 0.59306766 19.863688 -0.03125 16.8203125 C-0.22811401 15.86818878 -0.42497803 14.91606506 -0.62780762 13.93508911 C-0.80799438 13.05432709 -0.98818115 12.17356506 -1.17382812 11.26611328 C-1.33371216 10.48889923 -1.49359619 9.71168518 -1.6583252 8.91091919 C-2 7 -2 7 -2 5 C-1.34 5 -0.68 5 0 5 C0 3.35 0 1.7 0 0 Z " fill="#180103" transform="translate(137,72)"/>
<path d="M0 0 C-3.64736244 3.0048219 -7.6740018 5.02064677 -11.875 7.125 C-12.56980469 7.48464844 -13.26460937 7.84429687 -13.98046875 8.21484375 C-18.03655531 10.2543449 -21.47420932 11.32182342 -26 12 C-26.33 12.66 -26.66 13.32 -27 14 C-26.15226188 8.49584528 -21.93074024 5.58670897 -18 2 C-16.63875 0.700625 -16.63875 0.700625 -15.25 -0.625 C-10.07687158 -2.81363125 -5.32794347 -1.27594763 0 0 Z " fill="#B81218" transform="translate(209,234)"/>
<path d="M0 0 C1.98 0 3.96 0 6 0 C6 1.65 6 3.3 6 5 C6.66 5 7.32 5 8 5 C5.68557052 18.33670099 3.36154983 31.67155591 1 45 C-1.94486906 41.61495052 -1.94486906 41.61495052 -2.18188477 38.97119141 C-2.08190186 38.23046387 -1.98191895 37.48973633 -1.87890625 36.7265625 C-1.76047363 35.8490332 -1.64204102 34.97150391 -1.52001953 34.06738281 C-0.45899802 27.80885031 0.7801481 21.59089593 2.0625 15.375 C2.34745723 13.97535237 2.63196569 12.57561329 2.91601562 11.17578125 C3.60551355 7.78278571 4.30105182 4.39106304 5 1 C3.35 1 1.7 1 0 1 C0 0.67 0 0.34 0 0 Z " fill="#280305" transform="translate(178,72)"/>
<path d="M0 0 C0.99 0 1.98 0 3 0 C2.44840153 3.8080232 1.48507974 6.11847013 -0.8125 9.1875 C-3.31430077 12.60282138 -5.70423816 16.05639535 -7.9921875 19.6171875 C-8.5183667 20.43034424 -9.0445459 21.24350098 -9.58666992 22.08129883 C-10.64488228 23.7214715 -11.69470043 25.36709377 -12.7355957 27.01831055 C-13.22890381 27.77668213 -13.72221191 28.53505371 -14.23046875 29.31640625 C-14.66770264 30.00162354 -15.10493652 30.68684082 -15.55541992 31.39282227 C-17.28372655 33.31566197 -18.48091797 33.62801207 -21 34 C-19.47084723 29.68493315 -17.23675822 25.98463872 -14.75390625 22.16796875 C-14.34212631 21.53135818 -13.93034637 20.89474762 -13.50608826 20.23884583 C-12.63854054 18.90189108 -11.76854446 17.56652222 -10.89624023 16.23266602 C-9.55986269 14.18345592 -8.23979604 12.12431991 -6.91992188 10.06445312 C-6.07389715 8.76498612 -5.22692485 7.46613545 -4.37890625 6.16796875 C-3.98506241 5.54931442 -3.59121857 4.9306601 -3.18544006 4.29325867 C-2.05297852 2.58276367 -2.05297852 2.58276367 0 0 Z " fill="#190103" transform="translate(220,99)"/>
<path d="M0 0 C0.33 0.99 0.66 1.98 1 3 C1.66 3 2.32 3 3 3 C3.33 2.01 3.66 1.02 4 0 C3.36470046 4.72125097 2.56384252 9.3645837 1.58984375 14.02734375 C1.32236328 15.31318359 1.05488281 16.59902344 0.77929688 17.92382812 C0.49874555 19.26172874 0.21814601 20.59961924 -0.0625 21.9375 C-0.34720545 23.30269263 -0.63171246 24.66792666 -0.91601562 26.03320312 C-1.6087293 29.35588056 -2.3034521 32.67812462 -3 36 C-3.66 35.34 -4.32 34.68 -5 34 C-5.66 34.99 -6.32 35.98 -7 37 C-6.35274608 32.21139524 -5.54525839 27.49032352 -4.58984375 22.75390625 C-4.45808243 22.09792953 -4.32632111 21.44195282 -4.19056702 20.76609802 C-3.77470365 18.69785935 -3.35615071 16.63017606 -2.9375 14.5625 C-2.65281576 13.14912459 -2.36830893 11.73571344 -2.08398438 10.32226562 C-1.39137107 6.88109524 -0.69634677 3.44041708 0 0 Z " fill="#1A0203" transform="translate(171,132)"/>
<path d="M0 0 C2.08522259 1.61549877 3.3907744 2.87352332 5 5 C4.8125 7.3125 4.8125 7.3125 4 9 C4 8.01 4 7.02 4 6 C2.741875 5.62875 1.48375 5.2575 0.1875 4.875 C-4.69903066 3.26667731 -8.9403233 0.89238708 -13.40234375 -1.63671875 C-16.57795584 -3.30331818 -19.51154981 -4.22478885 -23 -5 C-23 -5.33 -23 -5.66 -23 -6 C-12.83767611 -7.93568074 -8.25159344 -6.01026533 0 0 Z " fill="#B81219" transform="translate(135,240)"/>
<path d="M0 0 C1.32 0.33 2.64 0.66 4 1 C2.12331404 8.47622862 -0.25697146 15.63621449 -3.01171875 22.8359375 C-3.93364667 25.78756444 -4.21198671 27.9405162 -4 31 C-4.66 31 -5.32 31 -6 31 C-7.67181826 27.85721797 -8.05721534 26.32227417 -7.42578125 22.765625 C-6.87470703 21.02539062 -6.87470703 21.02539062 -6.3125 19.25 C-5.74015625 17.40728516 -5.74015625 17.40728516 -5.15625 15.52734375 C-4.58390625 13.78130859 -4.58390625 13.78130859 -4 12 C-3.7009375 11.07316406 -3.401875 10.14632812 -3.09375 9.19140625 C-2.41375064 7.12080819 -1.71366309 5.05916802 -1 3 C-0.67 2.01 -0.34 1.02 0 0 Z " fill="#0D0001" transform="translate(151,211)"/>
<path d="M0 0 C5 1 5 1 6.8359375 3.6171875 C7.34382813 4.69226563 7.85171875 5.76734375 8.375 6.875 C8.89835937 7.94492188 9.42171875 9.01484375 9.9609375 10.1171875 C11 13 11 13 10 16 C8.35 16.66 6.7 17.32 5 18 C3.35 12.06 1.7 6.12 0 0 Z " fill="#DE1321" transform="translate(264,102)"/>
<path d="M0 0 C0.33 0 0.66 0 1 0 C1.8382125 3.93647774 2.66973255 7.87433951 3.5 11.8125 C3.85771484 13.49182617 3.85771484 13.49182617 4.22265625 15.20507812 C4.56103516 16.81479492 4.56103516 16.81479492 4.90625 18.45703125 C5.11572266 19.44678955 5.32519531 20.43654785 5.54101562 21.45629883 C6 24 6 24 6 27 C5.34 27 4.68 27 4 27 C3.67 27.99 3.34 28.98 3 30 C1.35 21.42 -0.3 12.84 -2 4 C-1.34 4 -0.68 4 0 4 C0 2.68 0 1.36 0 0 Z " fill="#180103" transform="translate(151,139)"/>
<path d="M0 0 C0 2.31 0 4.62 0 7 C-9 10 -9 10 -18 13 C-18 12.01 -18 11.02 -18 10 C-17.27554688 9.61328125 -16.55109375 9.2265625 -15.8046875 8.828125 C-12.14541266 6.85699562 -4.06412565 0 0 0 Z " fill="#E31421" transform="translate(146,127)"/>
<path d="M0 0 C0.33 0.66 0.66 1.32 1 2 C1.66 2 2.32 2 3 2 C2.04389015 5.67957426 1.03568917 9.34203398 0 13 C-0.31324219 14.11117188 -0.62648437 15.22234375 -0.94921875 16.3671875 C-1.27535156 17.44226563 -1.60148438 18.51734375 -1.9375 19.625 C-2.38416016 21.12933594 -2.38416016 21.12933594 -2.83984375 22.6640625 C-4 25 -4 25 -6.12890625 25.8359375 C-6.74636719 25.89007813 -7.36382812 25.94421875 -8 26 C-5.74603165 17.185701 -2.9375631 8.60369272 0 0 Z " fill="#1A0203" transform="translate(138,251)"/>
<path d="M0 0 C0.33 0.66 0.66 1.32 1 2 C1.66 2 2.32 2 3 2 C2.20736384 9.76783437 0.58110513 17.3629639 -1 25 C-1.66 24.34 -2.32 23.68 -3 23 C-3.66 23.99 -4.32 24.98 -5 26 C-4.35215814 20.05349367 -3.28016565 14.32612517 -1.9375 8.5 C-1.75123047 7.67757812 -1.56496094 6.85515625 -1.37304688 6.0078125 C-0.91879115 4.0044283 -0.45988401 2.0020997 0 0 Z " fill="#160102" transform="translate(190,41)"/>
<path d="M0 0 C0.99 0 1.98 0 3 0 C3.50643553 2.22771342 4.0048962 4.45724076 4.5 6.6875 C4.7784375 7.92886719 5.056875 9.17023437 5.34375 10.44921875 C5.89354126 13.42398218 6.13795705 15.99368602 6 19 C5.01 19.33 4.02 19.66 3 20 C2.29878357 17.60743751 1.61385099 15.21209511 0.9375 12.8125 C0.63875977 11.80219727 0.63875977 11.80219727 0.33398438 10.77148438 C-0.76309811 6.82583684 -1.21781251 3.94448706 0 0 Z " fill="#1B0203" transform="translate(129,44)"/>
<path d="M0 0 C2.71609918 2.71609918 3.46920222 5.86595045 4.625 9.4375 C4.85445312 10.11876953 5.08390625 10.80003906 5.3203125 11.50195312 C6.29042613 14.44982818 7 16.87666842 7 20 C6.01 20.33 5.02 20.66 4 21 C3.12862849 18.63011071 2.27793192 16.25585224 1.4375 13.875 C1.19064453 13.20984375 0.94378906 12.5446875 0.68945312 11.859375 C-0.82693574 7.50242673 -1.16271847 4.46985184 0 0 Z " fill="#190203" transform="translate(182,248)"/>
<path d="M0 0 C3.8382853 1.46591339 7.46584392 3.19623869 11.125 5.0625 C14.08657781 6.57283083 16.84546442 7.94848814 20 9 C20 9.66 20 10.32 20 11 C15.46782913 10.41895245 11.41814612 9.18586563 7.125 7.69921875 C4.77566208 6.92618293 2.4412268 6.39374626 0 6 C0 4.02 0 2.04 0 0 Z " fill="#DE1320" transform="translate(175,128)"/>
<path d="M0 0 C0.99 0 1.98 0 3 0 C2.43668806 4.12848353 1.12208097 6.77892278 -1.25 10.1875 C-1.83265625 11.04730469 -2.4153125 11.90710938 -3.015625 12.79296875 C-5.20747308 15.23075254 -6.89985546 16.04323126 -10 17 C-8.51400561 12.84999494 -6.47679376 9.36963518 -4.0625 5.6875 C-3.37285156 4.61886719 -2.68320313 3.55023438 -1.97265625 2.44921875 C-1.32167969 1.64097656 -0.67070312 0.83273438 0 0 Z " fill="#1D0203" transform="translate(239,70)"/>
<path d="M0 0 C0.66 0.33 1.32 0.66 2 1 C0.83438181 2.4055984 -0.33230296 3.81032394 -1.50390625 5.2109375 C-2.51584695 6.42103891 -3.52355362 7.6346916 -4.52734375 8.8515625 C-7.13684959 11.97234556 -9.56096406 14.75139958 -13 17 C-13 12.48772768 -10.69849088 10.71687222 -7.625 7.5625 C-6.75875 6.716875 -5.8925 5.87125 -5 5 C-3.6078125 3.6078125 -3.6078125 3.6078125 -2.1875 2.1875 C-1.1046875 1.1046875 -1.1046875 1.1046875 0 0 Z " fill="#190103" transform="translate(105,236)"/>
<path d="M0 0 C1.32 0.33 2.64 0.66 4 1 C3.55005243 2.79379098 3.08975857 4.58498928 2.625 6.375 C2.36976563 7.37273437 2.11453125 8.37046875 1.8515625 9.3984375 C1 12 1 12 -1 14 C-1.99 14 -2.98 14 -4 14 C-3.52188823 12.22888156 -3.0424722 10.45811517 -2.5625 8.6875 C-2.29566406 7.70136719 -2.02882812 6.71523437 -1.75390625 5.69921875 C-1.21920575 3.78482474 -0.62855462 1.88566385 0 0 Z " fill="#1F0204" transform="translate(151,211)"/>
<path d="M0 0 C3.14510401 0.74002447 6.14590457 1.66371592 9.1875 2.75 C8.8575 3.74 8.5275 4.73 8.1875 5.75 C3.35121695 4.75956295 -1.28868873 3.79301154 -5.8125 1.75 C-2.8125 -0.25 -2.8125 -0.25 0 0 Z " fill="#1F0204" transform="translate(253.8125,216.25)"/>
<path d="M0 0 C0.33 1.32 0.66 2.64 1 4 C4.96 4 8.92 4 13 4 C13 4.33 13 4.66 13 5 C10.36 5.33 7.72 5.66 5 6 C7.64 6.33 10.28 6.66 13 7 C12.67 7.99 12.34 8.98 12 10 C12 9.34 12 8.68 12 8 C8.37 8 4.74 8 1 8 C-1 4 -1 4 -0.625 1.75 C-0.41875 1.1725 -0.2125 0.595 0 0 Z " fill="#5C070C" transform="translate(269,168)"/>
<path d="M0 0 C-0.33 0.33 -0.66 0.66 -1 1 C-0.34 1.66 0.32 2.32 1 3 C-3.95 4.485 -3.95 4.485 -9 6 C-8.67 5.01 -8.34 4.02 -8 3 C-8.66 2.67 -9.32 2.34 -10 2 C-8.71211992 1.46987262 -7.41953322 0.9511671 -6.125 0.4375 C-5.40570313 0.14746094 -4.68640625 -0.14257812 -3.9453125 -0.44140625 C-2 -1 -2 -1 0 0 Z " fill="#330407" transform="translate(71,216)"/>
<path d="M0 0 C-0.33 0.99 -0.66 1.98 -1 3 C-2.64551962 3.71727778 -4.31422289 4.38325228 -6 5 C-6.66 5.66 -7.32 6.32 -8 7 C-8 5.68 -8 4.36 -8 3 C-8.66 2.67 -9.32 2.34 -10 2 C-6.49223216 0.39644899 -3.85645121 -0.22036864 0 0 Z " fill="#1A0203" transform="translate(63,219)"/>
<path d="M0 0 C0.33 0.66 0.66 1.32 1 2 C1.66 2 2.32 2 3 2 C2.67 4.97 2.34 7.94 2 11 C1.34 10.34 0.68 9.68 0 9 C-0.66 9.99 -1.32 10.98 -2 12 C-1 3.42857143 -1 3.42857143 0 0 Z " fill="#2C0305" transform="translate(187,55)"/>
<path d="M0 0 C0.33 0 0.66 0 1 0 C3.27678571 8.03571429 3.27678571 8.03571429 2 12 C2 11.01 2 10.02 2 9 C1.34 9 0.68 9 0 9 C-0.33 9.66 -0.66 10.32 -1 11 C-1.33 8.69 -1.66 6.38 -2 4 C-1.34 4 -0.68 4 0 4 C0 2.68 0 1.36 0 0 Z " fill="#2E0306" transform="translate(141,92)"/>
<path d="M0 0 C0.33 0 0.66 0 1 0 C1.33 2.64 1.66 5.28 2 8 C1.34 8 0.68 8 0 8 C-0.33 9.32 -0.66 10.64 -1 12 C-1.33 9.36 -1.66 6.72 -2 4 C-1.34 4 -0.68 4 0 4 C0 2.68 0 1.36 0 0 Z " fill="#250205" transform="translate(145,111)"/>
<path d="M0 0 C0.99 0 1.98 0 3 0 C3 1.65 3 3.3 3 5 C2.34 5 1.68 5 1 5 C0.67 5.66 0.34 6.32 0 7 C-0.38133299 5.0085944 -0.71325582 3.00720923 -1 1 C-0.67 0.67 -0.34 0.34 0 0 Z " fill="#340407" transform="translate(129,44)"/>
<path d="M0 0 C-0.33 2.31 -0.66 4.62 -1 7 C-1.66 6.34 -2.32 5.68 -3 5 C-3.66 5.99 -4.32 6.98 -5 8 C-4.74438677 5.6568787 -4.40729228 3.32156597 -4 1 C-2 0 -2 0 0 0 Z " fill="#260304" transform="translate(169,161)"/>
<path d="M0 0 C0.33 0 0.66 0 1 0 C1 2.31 1 4.62 1 7 C0.01 7.33 -0.98 7.66 -2 8 C-1.125 1.125 -1.125 1.125 0 0 Z " fill="#0C0001" transform="translate(181,93)"/>
<path d="M0 0 C0.33 0.99 0.66 1.98 1 3 C1.66 3 2.32 3 3 3 C2.67 4.65 2.34 6.3 2 8 C1.34 8 0.68 8 0 8 C0 5.36 0 2.72 0 0 Z " fill="#1E0203" transform="translate(178,98)"/>
</svg>
